<svg xmlns="http://www.w3.org/2000/svg" viewBox="0 0 2000 1000" fill="#3d4f63">
  <rect width="2000" height="1000" fill="#0c1524"/>
  <g fill="#4a5f78" stroke="#5c7390" stroke-width="0.8">
    <path d="M280,120 C320,90 380,85 450,100 C520,115 580,140 620,180 C660,220 680,270 670,320 C660,370 620,400 560,410 C500,420 440,400 390,370 C340,340 300,300 280,250 C260,200 260,150 280,120 Z"/>
    <path d="M340,420 C380,400 420,410 450,440 C480,470 490,520 470,560 C450,600 410,620 370,610 C330,600 310,560 320,520 C330,480 340,450 340,420 Z"/>
    <path d="M920,160 C980,140 1040,145 1090,170 C1140,195 1170,230 1160,270 C1150,310 1110,340 1060,350 C1010,360 960,345 920,320 C880,295 860,250 870,210 C880,170 900,165 920,160 Z"/>
    <path d="M940,360 C980,350 1020,365 1040,400 C1060,435 1050,480 1020,520 C990,560 950,580 920,570 C890,560 870,530 880,490 C890,450 910,380 940,360 Z"/>
    <path d="M1080,120 C1180,100 1280,110 1380,140 C1480,170 1560,210 1600,260 C1640,310 1630,370 1580,420 C1530,470 1450,500 1360,510 C1270,520 1180,500 1100,460 C1020,420 980,360 1000,300 C1020,240 1050,140 1080,120 Z"/>
    <path d="M1180,520 C1220,510 1260,530 1280,560 C1300,590 1290,630 1260,660 C1230,690 1190,700 1160,680 C1130,660 1120,620 1140,580 C1160,540 1160,530 1180,520 Z"/>
    <path d="M1580,620 C1640,610 1700,620 1740,650 C1780,680 1790,720 1760,750 C1730,780 1680,790 1630,780 C1580,770 1540,740 1530,700 C1520,660 1540,630 1580,620 Z"/>
    <path d="M480,180 C520,170 560,180 590,210 C620,240 630,280 610,320 C590,360 550,380 510,370 C470,360 450,320 460,280 C470,240 480,190 480,180 Z"/>
  </g>
</svg>
